<?xml version="1.0" encoding="UTF-8" standalone="no"?>
<!DOCTYPE svg PUBLIC "-//W3C//DTD SVG 1.1//EN"
 "http://www.w3.org/Graphics/SVG/1.1/DTD/svg11.dtd">
<!-- Generated by graphviz version 7.0.5 (20221223.1930)
 -->
<!-- Title: jwt::decoded_jwt&lt; json_traits &gt; Pages: 1 -->
<svg width="244pt" height="104pt"
 viewBox="0.00 0.00 244.00 104.00" xmlns="http://www.w3.org/2000/svg" xmlns:xlink="http://www.w3.org/1999/xlink">
<g id="graph0" class="graph" transform="scale(1 1) rotate(0) translate(4 100)">
<title>jwt::decoded_jwt&lt; json_traits &gt;</title>
<!-- Node1 -->
<g id="node1" class="node">
<title>Node1</title>
<g id="a_node1"><a xlink:title=" ">
<polygon fill="#999999" stroke="#666666" points="183,-30 68,-30 68,0 183,0 183,-30"/>
<text text-anchor="start" x="76" y="-18" font-family="Helvetica,sans-Serif" font-size="10.00">jwt::decoded_jwt&lt; json</text>
<text text-anchor="middle" x="125.5" y="-7" font-family="Helvetica,sans-Serif" font-size="10.00">_traits &gt;</text>
</a>
</g>
</g>
<!-- Node2 -->
<g id="node2" class="node">
<title>Node2</title>
<g id="a_node2"><a xlink:href="classjwt_1_1header.html" target="_top" xlink:title=" ">
<polygon fill="white" stroke="#666666" points="125,-90.5 0,-90.5 0,-71.5 125,-71.5 125,-90.5"/>
<text text-anchor="middle" x="62.5" y="-78.5" font-family="Helvetica,sans-Serif" font-size="10.00">jwt::header&lt; json_traits &gt;</text>
</a>
</g>
</g>
<!-- Node2&#45;&gt;Node1 -->
<g id="edge1" class="edge">
<title>Node2&#45;&gt;Node1</title>
<path fill="none" stroke="#63b8ff" d="M79.29,-62.95C89.34,-52.73 101.97,-39.9 111.49,-30.23"/>
<polygon fill="#63b8ff" stroke="#63b8ff" points="76.84,-60.44 72.32,-70.02 81.83,-65.35 76.84,-60.44"/>
</g>
<!-- Node3 -->
<g id="node3" class="node">
<title>Node3</title>
<g id="a_node3"><a xlink:href="classjwt_1_1payload.html" target="_top" xlink:title=" ">
<polygon fill="white" stroke="#666666" points="236,-96 143,-96 143,-66 236,-66 236,-96"/>
<text text-anchor="start" x="151" y="-84" font-family="Helvetica,sans-Serif" font-size="10.00">jwt::payload&lt; json</text>
<text text-anchor="middle" x="189.5" y="-73" font-family="Helvetica,sans-Serif" font-size="10.00">_traits &gt;</text>
</a>
</g>
</g>
<!-- Node3&#45;&gt;Node1 -->
<g id="edge2" class="edge">
<title>Node3&#45;&gt;Node1</title>
<path fill="none" stroke="#63b8ff" d="M167.31,-57.81C158.14,-48.64 147.78,-38.28 139.66,-30.16"/>
<polygon fill="#63b8ff" stroke="#63b8ff" points="164.68,-60.13 174.23,-64.73 169.63,-55.18 164.68,-60.13"/>
</g>
</g>
</svg>
