<?xml version="1.0" encoding="UTF-8" standalone="no"?>
<!DOCTYPE svg PUBLIC "-//W3C//DTD SVG 1.1//EN"
 "http://www.w3.org/Graphics/SVG/1.1/DTD/svg11.dtd">
<!-- Generated by graphviz version 7.0.5 (20221223.1930)
 -->
<!-- Title: jwt::algorithm::eddsa Pages: 1 -->
<svg width="246pt" height="82pt"
 viewBox="0.00 0.00 245.50 82.00" xmlns="http://www.w3.org/2000/svg" xmlns:xlink="http://www.w3.org/1999/xlink">
<g id="graph0" class="graph" transform="scale(1 1) rotate(0) translate(4 78)">
<title>jwt::algorithm::eddsa</title>
<!-- Node1 -->
<g id="node1" class="node">
<title>Node1</title>
<g id="a_node1"><a xlink:title="Base class for EdDSA family of algorithms.">
<polygon fill="#999999" stroke="#666666" points="173.5,-74 69.5,-74 69.5,-55 173.5,-55 173.5,-74"/>
<text text-anchor="middle" x="121.5" y="-62" font-family="Helvetica,sans-Serif" font-size="10.00">jwt::algorithm::eddsa</text>
</a>
</g>
</g>
<!-- Node2 -->
<g id="node2" class="node">
<title>Node2</title>
<g id="a_node2"><a xlink:href="structjwt_1_1algorithm_1_1ed25519.html" target="_top" xlink:title=" ">
<polygon fill="white" stroke="#666666" points="115,-19 0,-19 0,0 115,0 115,-19"/>
<text text-anchor="middle" x="57.5" y="-7" font-family="Helvetica,sans-Serif" font-size="10.00">jwt::algorithm::ed25519</text>
</a>
</g>
</g>
<!-- Node1&#45;&gt;Node2 -->
<g id="edge1" class="edge">
<title>Node1&#45;&gt;Node2</title>
<path fill="none" stroke="#63b8ff" d="M102.02,-47.37C90.9,-38.16 77.4,-26.98 68.2,-19.36"/>
<polygon fill="#63b8ff" stroke="#63b8ff" points="99.54,-49.86 109.48,-53.54 104.01,-44.47 99.54,-49.86"/>
</g>
<!-- Node3 -->
<g id="node3" class="node">
<title>Node3</title>
<g id="a_node3"><a xlink:href="structjwt_1_1algorithm_1_1ed448.html" target="_top" xlink:title=" ">
<polygon fill="white" stroke="#666666" points="237.5,-19 133.5,-19 133.5,0 237.5,0 237.5,-19"/>
<text text-anchor="middle" x="185.5" y="-7" font-family="Helvetica,sans-Serif" font-size="10.00">jwt::algorithm::ed448</text>
</a>
</g>
</g>
<!-- Node1&#45;&gt;Node3 -->
<g id="edge2" class="edge">
<title>Node1&#45;&gt;Node3</title>
<path fill="none" stroke="#63b8ff" d="M140.98,-47.37C152.1,-38.16 165.6,-26.98 174.8,-19.36"/>
<polygon fill="#63b8ff" stroke="#63b8ff" points="138.99,-44.47 133.52,-53.54 143.46,-49.86 138.99,-44.47"/>
</g>
</g>
</svg>
