<?xml version="1.0" encoding="UTF-8" standalone="no"?>
<!DOCTYPE svg PUBLIC "-//W3C//DTD SVG 1.1//EN"
 "http://www.w3.org/Graphics/SVG/1.1/DTD/svg11.dtd">
<!-- Generated by graphviz version 7.0.5 (20221223.1930)
 -->
<!-- Title: jwt::algorithm::pss Pages: 1 -->
<svg width="356pt" height="82pt"
 viewBox="0.00 0.00 356.00 82.00" xmlns="http://www.w3.org/2000/svg" xmlns:xlink="http://www.w3.org/1999/xlink">
<g id="graph0" class="graph" transform="scale(1 1) rotate(0) translate(4 78)">
<title>jwt::algorithm::pss</title>
<!-- Node1 -->
<g id="node1" class="node">
<title>Node1</title>
<g id="a_node1"><a xlink:title="Base class for PSS&#45;RSA family of algorithms.">
<polygon fill="#999999" stroke="#666666" points="221,-74 127,-74 127,-55 221,-55 221,-74"/>
<text text-anchor="middle" x="174" y="-62" font-family="Helvetica,sans-Serif" font-size="10.00">jwt::algorithm::pss</text>
</a>
</g>
</g>
<!-- Node2 -->
<g id="node2" class="node">
<title>Node2</title>
<g id="a_node2"><a xlink:href="structjwt_1_1algorithm_1_1ps256.html" target="_top" xlink:title=" ">
<polygon fill="white" stroke="#666666" points="104,-19 0,-19 0,0 104,0 104,-19"/>
<text text-anchor="middle" x="52" y="-7" font-family="Helvetica,sans-Serif" font-size="10.00">jwt::algorithm::ps256</text>
</a>
</g>
</g>
<!-- Node1&#45;&gt;Node2 -->
<g id="edge1" class="edge">
<title>Node1&#45;&gt;Node2</title>
<path fill="none" stroke="#63b8ff" d="M142.76,-49.93C120.64,-40.32 91.59,-27.7 72.39,-19.36"/>
<polygon fill="#63b8ff" stroke="#63b8ff" points="141.35,-53.13 151.92,-53.91 144.14,-46.71 141.35,-53.13"/>
</g>
<!-- Node3 -->
<g id="node3" class="node">
<title>Node3</title>
<g id="a_node3"><a xlink:href="structjwt_1_1algorithm_1_1ps384.html" target="_top" xlink:title=" ">
<polygon fill="white" stroke="#666666" points="226,-19 122,-19 122,0 226,0 226,-19"/>
<text text-anchor="middle" x="174" y="-7" font-family="Helvetica,sans-Serif" font-size="10.00">jwt::algorithm::ps384</text>
</a>
</g>
</g>
<!-- Node1&#45;&gt;Node3 -->
<g id="edge2" class="edge">
<title>Node1&#45;&gt;Node3</title>
<path fill="none" stroke="#63b8ff" d="M174,-43.35C174,-35.1 174,-25.97 174,-19.44"/>
<polygon fill="#63b8ff" stroke="#63b8ff" points="170.5,-43.23 174,-53.23 177.5,-43.23 170.5,-43.23"/>
</g>
<!-- Node4 -->
<g id="node4" class="node">
<title>Node4</title>
<g id="a_node4"><a xlink:href="structjwt_1_1algorithm_1_1ps512.html" target="_top" xlink:title=" ">
<polygon fill="white" stroke="#666666" points="348,-19 244,-19 244,0 348,0 348,-19"/>
<text text-anchor="middle" x="296" y="-7" font-family="Helvetica,sans-Serif" font-size="10.00">jwt::algorithm::ps512</text>
</a>
</g>
</g>
<!-- Node1&#45;&gt;Node4 -->
<g id="edge3" class="edge">
<title>Node1&#45;&gt;Node4</title>
<path fill="none" stroke="#63b8ff" d="M205.24,-49.93C227.36,-40.32 256.41,-27.7 275.61,-19.36"/>
<polygon fill="#63b8ff" stroke="#63b8ff" points="203.86,-46.71 196.08,-53.91 206.65,-53.13 203.86,-46.71"/>
</g>
</g>
</svg>
