<?xml version="1.0" encoding="UTF-8" standalone="no"?>
<!DOCTYPE svg PUBLIC "-//W3C//DTD SVG 1.1//EN"
 "http://www.w3.org/Graphics/SVG/1.1/DTD/svg11.dtd">
<!-- Generated by graphviz version 7.0.5 (20221223.1930)
 -->
<!-- Title: jwt::algorithm::ecdsa Pages: 1 -->
<svg width="258pt" height="138pt"
 viewBox="0.00 0.00 258.00 138.00" xmlns="http://www.w3.org/2000/svg" xmlns:xlink="http://www.w3.org/1999/xlink">
<g id="graph0" class="graph" transform="scale(1 1) rotate(0) translate(4 134)">
<title>jwt::algorithm::ecdsa</title>
<!-- Node1 -->
<g id="node1" class="node">
<title>Node1</title>
<g id="a_node1"><a xlink:title="Base class for ECDSA family of algorithms.">
<polygon fill="#999999" stroke="#666666" points="104,-74 0,-74 0,-55 104,-55 104,-74"/>
<text text-anchor="middle" x="52" y="-62" font-family="Helvetica,sans-Serif" font-size="10.00">jwt::algorithm::ecdsa</text>
</a>
</g>
</g>
<!-- Node2 -->
<g id="node2" class="node">
<title>Node2</title>
<g id="a_node2"><a xlink:href="structjwt_1_1algorithm_1_1es256.html" target="_top" xlink:title=" ">
<polygon fill="white" stroke="#666666" points="247,-130 143,-130 143,-111 247,-111 247,-130"/>
<text text-anchor="middle" x="195" y="-118" font-family="Helvetica,sans-Serif" font-size="10.00">jwt::algorithm::es256</text>
</a>
</g>
</g>
<!-- Node1&#45;&gt;Node2 -->
<g id="edge1" class="edge">
<title>Node1&#45;&gt;Node2</title>
<path fill="none" stroke="#63b8ff" d="M84.37,-79.02C100.79,-86.41 121.32,-95.32 140,-102.5 147.2,-105.26 155.02,-108.01 162.42,-110.5"/>
<polygon fill="#63b8ff" stroke="#63b8ff" points="86.16,-75.99 75.61,-75.04 83.27,-82.36 86.16,-75.99"/>
</g>
<!-- Node3 -->
<g id="node3" class="node">
<title>Node3</title>
<g id="a_node3"><a xlink:href="structjwt_1_1algorithm_1_1es256k.html" target="_top" xlink:title=" ">
<polygon fill="white" stroke="#666666" points="250,-93 140,-93 140,-74 250,-74 250,-93"/>
<text text-anchor="middle" x="195" y="-81" font-family="Helvetica,sans-Serif" font-size="10.00">jwt::algorithm::es256k</text>
</a>
</g>
</g>
<!-- Node1&#45;&gt;Node3 -->
<g id="edge2" class="edge">
<title>Node1&#45;&gt;Node3</title>
<path fill="none" stroke="#63b8ff" d="M115.53,-72.93C123.57,-74.01 131.75,-75.11 139.65,-76.18"/>
<polygon fill="#63b8ff" stroke="#63b8ff" points="116.18,-69.48 105.8,-71.62 115.25,-76.42 116.18,-69.48"/>
</g>
<!-- Node4 -->
<g id="node4" class="node">
<title>Node4</title>
<g id="a_node4"><a xlink:href="structjwt_1_1algorithm_1_1es384.html" target="_top" xlink:title=" ">
<polygon fill="white" stroke="#666666" points="247,-56 143,-56 143,-37 247,-37 247,-56"/>
<text text-anchor="middle" x="195" y="-44" font-family="Helvetica,sans-Serif" font-size="10.00">jwt::algorithm::es384</text>
</a>
</g>
</g>
<!-- Node1&#45;&gt;Node4 -->
<g id="edge3" class="edge">
<title>Node1&#45;&gt;Node4</title>
<path fill="none" stroke="#63b8ff" d="M115.71,-56.49C124.83,-55.33 134.12,-54.14 142.97,-53.01"/>
<polygon fill="#63b8ff" stroke="#63b8ff" points="115.28,-53.02 105.8,-57.76 116.17,-59.96 115.28,-53.02"/>
</g>
<!-- Node5 -->
<g id="node5" class="node">
<title>Node5</title>
<g id="a_node5"><a xlink:href="structjwt_1_1algorithm_1_1es512.html" target="_top" xlink:title=" ">
<polygon fill="white" stroke="#666666" points="247,-19 143,-19 143,0 247,0 247,-19"/>
<text text-anchor="middle" x="195" y="-7" font-family="Helvetica,sans-Serif" font-size="10.00">jwt::algorithm::es512</text>
</a>
</g>
</g>
<!-- Node1&#45;&gt;Node5 -->
<g id="edge4" class="edge">
<title>Node1&#45;&gt;Node5</title>
<path fill="none" stroke="#63b8ff" d="M86.63,-50.09C102.7,-43.33 122.26,-35.29 140,-28.5 147.98,-25.45 156.7,-22.3 164.75,-19.47"/>
<polygon fill="#63b8ff" stroke="#63b8ff" points="85.37,-46.82 77.52,-53.94 88.09,-53.27 85.37,-46.82"/>
</g>
</g>
</svg>
