<?xml version="1.0" encoding="UTF-8" standalone="no"?>
<!DOCTYPE svg PUBLIC "-//W3C//DTD SVG 1.1//EN"
 "http://www.w3.org/Graphics/SVG/1.1/DTD/svg11.dtd">
<!-- Generated by graphviz version 7.0.5 (20221223.1930)
 -->
<!-- Title: jwt::algorithm::rsa Pages: 1 -->
<svg width="350pt" height="82pt"
 viewBox="0.00 0.00 350.00 82.00" xmlns="http://www.w3.org/2000/svg" xmlns:xlink="http://www.w3.org/1999/xlink">
<g id="graph0" class="graph" transform="scale(1 1) rotate(0) translate(4 78)">
<title>jwt::algorithm::rsa</title>
<!-- Node1 -->
<g id="node1" class="node">
<title>Node1</title>
<g id="a_node1"><a xlink:title="Base class for RSA family of algorithms.">
<polygon fill="#999999" stroke="#666666" points="217,-74 125,-74 125,-55 217,-55 217,-74"/>
<text text-anchor="middle" x="171" y="-62" font-family="Helvetica,sans-Serif" font-size="10.00">jwt::algorithm::rsa</text>
</a>
</g>
</g>
<!-- Node2 -->
<g id="node2" class="node">
<title>Node2</title>
<g id="a_node2"><a xlink:href="structjwt_1_1algorithm_1_1rs256.html" target="_top" xlink:title=" ">
<polygon fill="white" stroke="#666666" points="102,-19 0,-19 0,0 102,0 102,-19"/>
<text text-anchor="middle" x="51" y="-7" font-family="Helvetica,sans-Serif" font-size="10.00">jwt::algorithm::rs256</text>
</a>
</g>
</g>
<!-- Node1&#45;&gt;Node2 -->
<g id="edge1" class="edge">
<title>Node1&#45;&gt;Node2</title>
<path fill="none" stroke="#63b8ff" d="M140.28,-49.93C118.51,-40.32 89.95,-27.7 71.06,-19.36"/>
<polygon fill="#63b8ff" stroke="#63b8ff" points="138.7,-53.06 149.26,-53.9 141.53,-46.66 138.7,-53.06"/>
</g>
<!-- Node3 -->
<g id="node3" class="node">
<title>Node3</title>
<g id="a_node3"><a xlink:href="structjwt_1_1algorithm_1_1rs384.html" target="_top" xlink:title=" ">
<polygon fill="white" stroke="#666666" points="222,-19 120,-19 120,0 222,0 222,-19"/>
<text text-anchor="middle" x="171" y="-7" font-family="Helvetica,sans-Serif" font-size="10.00">jwt::algorithm::rs384</text>
</a>
</g>
</g>
<!-- Node1&#45;&gt;Node3 -->
<g id="edge2" class="edge">
<title>Node1&#45;&gt;Node3</title>
<path fill="none" stroke="#63b8ff" d="M171,-43.35C171,-35.1 171,-25.97 171,-19.44"/>
<polygon fill="#63b8ff" stroke="#63b8ff" points="167.5,-43.23 171,-53.23 174.5,-43.23 167.5,-43.23"/>
</g>
<!-- Node4 -->
<g id="node4" class="node">
<title>Node4</title>
<g id="a_node4"><a xlink:href="structjwt_1_1algorithm_1_1rs512.html" target="_top" xlink:title=" ">
<polygon fill="white" stroke="#666666" points="342,-19 240,-19 240,0 342,0 342,-19"/>
<text text-anchor="middle" x="291" y="-7" font-family="Helvetica,sans-Serif" font-size="10.00">jwt::algorithm::rs512</text>
</a>
</g>
</g>
<!-- Node1&#45;&gt;Node4 -->
<g id="edge3" class="edge">
<title>Node1&#45;&gt;Node4</title>
<path fill="none" stroke="#63b8ff" d="M201.72,-49.93C223.49,-40.32 252.05,-27.7 270.94,-19.36"/>
<polygon fill="#63b8ff" stroke="#63b8ff" points="200.47,-46.66 192.74,-53.9 203.3,-53.06 200.47,-46.66"/>
</g>
</g>
</svg>
